<?xml version="1.0" standalone="no"?>
<!DOCTYPE svg PUBLIC "-//W3C//DTD SVG 20010904//EN"
 "http://www.w3.org/TR/2001/REC-SVG-20010904/DTD/svg10.dtd">
<svg version="1.0" xmlns="http://www.w3.org/2000/svg"
 width="873.000000pt" height="257.000000pt" viewBox="0 0 873.000000 257.000000"
 preserveAspectRatio="xMidYMid meet">
<metadata>
Created by potrace 1.16, written by Peter Selinger 2001-2019
</metadata>
<g transform="translate(0.000000,257.000000) scale(0.100000,-0.100000)"
fill="#000000" stroke="none">
<path d="M771 1948 c-88 -20 -157 -82 -185 -166 -14 -40 -17 -109 -19 -407 -2
-352 -2 -361 20 -400 54 -101 180 -161 284 -135 57 15 912 459 960 499 73 60
103 168 75 262 -17 59 -90 163 -172 246 -74 75 -98 80 -469 92 -170 6 -341 13
-380 15 -38 3 -90 0 -114 -6z"/>
<path d="M2206 1938 c-14 -20 -16 -83 -16 -544 0 -489 1 -523 18 -544 23 -28
59 -20 73 17 15 40 12 1032 -4 1063 -17 33 -51 37 -71 8z"/>
<path d="M2914 1950 c-172 -25 -286 -113 -313 -241 -21 -98 11 -192 91 -264
57 -51 127 -87 278 -140 113 -41 173 -74 190 -104 5 -11 10 -40 10 -64 0 -53
-27 -93 -76 -113 -41 -17 -143 -18 -196 -2 -52 15 -104 74 -113 127 l-7 41
-110 0 -111 0 6 -45 c29 -209 252 -340 520 -305 103 13 185 50 240 109 53 57
71 105 71 191 -1 116 -58 204 -177 274 -25 15 -107 49 -181 76 -151 54 -192
78 -212 125 -15 38 -5 92 24 118 53 48 165 61 239 28 46 -21 72 -54 82 -104
l7 -32 112 -3 112 -3 -6 43 c-22 152 -145 263 -319 288 -78 11 -88 11 -161 0z"/>
<path d="M3900 1949 c-171 -29 -297 -150 -357 -345 -26 -84 -26 -334 0 -418
61 -199 189 -318 370 -346 256 -40 466 112 522 376 19 88 19 269 0 356 -43
207 -184 348 -375 378 -74 11 -84 11 -160 -1z m212 -215 c92 -64 134 -228 111
-435 -19 -165 -79 -256 -184 -278 -121 -26 -220 34 -267 161 -20 55 -29 303
-12 381 16 80 65 156 120 185 38 20 56 23 117 20 61 -3 78 -8 115 -34z"/>
<path d="M4975 1950 c-194 -32 -323 -164 -371 -378 -23 -104 -15 -332 14 -415
51 -139 123 -225 235 -277 224 -105 491 -21 596 187 49 97 64 172 65 318 1
187 -28 295 -109 406 -88 118 -269 186 -430 159z m162 -191 c46 -17 102 -79
125 -139 30 -77 38 -306 14 -400 -36 -139 -104 -202 -219 -203 -110 -1 -187
61 -223 177 -22 71 -29 247 -15 331 22 123 61 189 136 228 35 19 140 22 182 6z"/>
<path d="M5690 1395 l0 -545 350 0 351 0 -3 88 -3 87 -30 1 c-16 0 -123 1
-237 2 l-208 2 0 455 0 455 -110 0 -110 0 0 -545z"/>
<path d="M6830 1883 c-120 -319 -380 -1022 -380 -1027 0 -4 53 -5 117 -4 l117
3 35 108 35 107 202 0 202 0 37 -110 37 -110 115 0 c105 0 115 2 111 18 -3 9
-94 254 -203 545 l-198 527 -103 0 -103 0 -21 -57z m195 -418 c35 -105 65
-196 65 -202 0 -10 -34 -13 -135 -13 -74 0 -135 3 -135 7 0 14 132 404 136
401 1 -2 33 -89 69 -193z"/>
<path d="M7590 1395 l0 -545 110 0 110 0 0 545 0 545 -110 0 -110 0 0 -545z"/>
</g>
</svg>
